<?xml version="1.0" encoding="UTF-8"?>
<svg version="1.1" viewBox="0 0 37 27" xmlns="http://www.w3.org/2000/svg" xmlns:xlink="http://www.w3.org/1999/xlink">
<defs>
<path id="c" d="m19.984 11.94c0 1 0.09 1.91 0.27 2.73s0.435 1.53 0.765 2.13 0.725 1.065 1.185 1.395 0.98 0.495 1.56 0.495c0.56 0 1.075-0.165 1.545-0.495s0.865-0.795 1.185-1.395 0.57-1.31 0.75-2.13 0.27-1.73 0.27-2.73c0-0.98-0.09-1.885-0.27-2.715s-0.43-1.54-0.75-2.13-0.715-1.05-1.185-1.38-0.985-0.495-1.545-0.495c-0.58 0-1.1 0.165-1.56 0.495s-0.855 0.79-1.185 1.38-0.585 1.3-0.765 2.13-0.27 1.735-0.27 2.715zm-5.82 0c0-1.8 0.235-3.435 0.705-4.905s1.13-2.725 1.98-3.765 1.86-1.845 3.03-2.415 2.465-0.855 3.885-0.855c1.4 0 2.69 0.285 3.87 0.855s2.19 1.375 3.03 2.415 1.495 2.295 1.965 3.765 0.705 3.105 0.705 4.905-0.235 3.435-0.705 4.905-1.125 2.73-1.965 3.78-1.85 1.86-3.03 2.43-2.47 0.855-3.87 0.855c-1.42 0-2.715-0.285-3.885-0.855s-2.18-1.38-3.03-2.43-1.51-2.31-1.98-3.78-0.705-3.105-0.705-4.905z"/>
<polygon id="d" points="0 0.66 9.18 0.66 9.18 23.28 3.3 23.28 3.3 5.64 0 5.64"/>
</defs>
<g transform="translate(1.923,1.72)" fill="none">
<use fill="#f6b042" stroke="#ffffff" stroke-width="2" xlink:href="#d"/>
<path d="m9.68 0.16v23.62h-6.88v-17.64h-3.3v-5.98z" stroke="#866024" stroke-opacity=".502"/>
<use fill="#f6b042" stroke="#ffffff" stroke-width="2" xlink:href="#c"/>
<path d="m23.764-0.5c1.4789 0 2.8412 0.30274 4.0875 0.90478 1.2466 0.60219 2.314 1.4523 3.2015 2.5511 0.87629 1.0849 1.5619 2.3931 2.0523 3.9269 0.48459 1.5156 0.72875 3.2012 0.72875 5.0573s-0.24416 3.5416-0.72875 5.0573c-0.49009 1.5328-1.1751 2.8454-2.0508 3.9401-0.88787 1.1098-1.9558 1.9654-3.203 2.5679-1.2463 0.60203-2.6085 0.90478-4.0875 0.90478-1.5004 0-2.868-0.30338-4.104-0.9055-1.2352-0.60178-2.3022-1.4562-3.1996-2.5649-0.88666-1.0953-1.5773-2.4086-2.0676-3.9423-0.48459-1.5156-0.72875-3.2012-0.72875-5.0573s0.24416-3.5416 0.72875-5.0573c0.49069-1.5347 1.1819-2.8436 2.0691-3.9291 0.89708-1.0976 1.9635-1.9466 3.1982-2.5481 1.2359-0.60213 2.6036-0.90551 4.104-0.90551zm0 6.22c-0.47137 0-0.89449 0.13292-1.2685 0.40127-0.40522 0.2907-0.74972 0.69868-1.0401 1.2178-0.30852 0.5516-0.54451 1.2162-0.71274 1.9919-0.17298 0.7976-0.25864 1.6673-0.25864 2.609 0 0.96065 0.08544 1.835 0.25837 2.6228 0.16861 0.76811 0.40553 1.434 0.71474 1.9962 0.28995 0.52719 0.63363 0.93935 1.0383 1.2297 0.37406 0.26835 0.79718 0.40127 1.2685 0.40127 0.45612 0 0.87509-0.13558 1.2577-0.40421 0.41065-0.28833 0.75194-0.69759 1.0311-1.2211 0.30069-0.5638 0.53371-1.2316 0.7028-2.0019 0.17293-0.7878 0.25837-1.6621 0.25837-2.6228 0-0.94169-0.08567-1.8114-0.25864-2.609-0.16871-0.77796-0.40084-1.4444-0.70088-1.9976-0.27957-0.51546-0.62167-0.92051-1.0328-1.2092-0.3826-0.26863-0.80156-0.40421-1.2577-0.40421z" stroke="#866024" stroke-opacity=".502"/>
</g>
</svg>
