<?xml version="1.0" encoding="UTF-8" standalone="no"?>
<svg
   viewBox="0 0 69.406067 78.694099"
   version="1.1"
   id="svg202"
   sodipodi:docname="banana.svg"
   width="69.406067"
   height="78.694099"
   inkscape:version="1.2.2 (1:1.2.2+202305151914+b0a8486541)"
   xmlns:inkscape="http://www.inkscape.org/namespaces/inkscape"
   xmlns:sodipodi="http://sodipodi.sourceforge.net/DTD/sodipodi-0.dtd"
   xmlns="http://www.w3.org/2000/svg"
   xmlns:svg="http://www.w3.org/2000/svg">
  <sodipodi:namedview
     id="namedview204"
     pagecolor="#ffffff"
     bordercolor="#000000"
     borderopacity="0.25"
     inkscape:showpageshadow="2"
     inkscape:pageopacity="0.0"
     inkscape:pagecheckerboard="0"
     inkscape:deskcolor="#d1d1d1"
     showgrid="false"
     inkscape:zoom="10.587629"
     inkscape:cx="38.488315"
     inkscape:cy="39.716164"
     inkscape:window-width="2560"
     inkscape:window-height="1380"
     inkscape:window-x="0"
     inkscape:window-y="28"
     inkscape:window-maximized="1"
     inkscape:current-layer="svg202" />
  <defs
     id="defs158">
    <linearGradient
       id="ab"
       x1="5.6959781"
       x2="61.850646"
       y1="43.088937"
       y2="22.612452"
       gradientTransform="scale(1.1547039,0.86602288)"
       gradientUnits="userSpaceOnUse">
      <stop
         stop-color="#FFA400"
         offset=".03"
         id="stop2" />
      <stop
         stop-color="#FFC01F"
         offset=".65"
         id="stop4" />
      <stop
         stop-color="#709C27"
         offset="1"
         id="stop6" />
    </linearGradient>
    <linearGradient
       id="aa"
       x1="16.983958"
       x2="45.205135"
       y1="8.1646781"
       y2="56.659358"
       gradientTransform="scale(1.1055441,0.904532)"
       gradientUnits="userSpaceOnUse">
      <stop
         stop-color="#E26364"
         offset="0"
         id="stop9" />
      <stop
         stop-color="#E57071"
         offset=".08"
         id="stop11" />
      <stop
         stop-color="#F0A19F"
         offset=".38"
         id="stop13" />
      <stop
         stop-color="#F8C5C1"
         offset=".65"
         id="stop15" />
      <stop
         stop-color="#FDDBD6"
         offset=".86"
         id="stop17" />
      <stop
         stop-color="#FFE3DE"
         offset="1"
         id="stop19" />
    </linearGradient>
    <linearGradient
       id="z"
       x1="5.9329921"
       x2="56.331392"
       y1="42.47424"
       y2="22.374776"
       gradientTransform="scale(1.1055426,0.90453317)"
       gradientUnits="userSpaceOnUse">
      <stop
         stop-color="#E26364"
         offset="0"
         id="stop22" />
      <stop
         stop-color="#E98C8D"
         offset=".04"
         id="stop24" />
      <stop
         stop-color="#F2BDBE"
         offset=".08"
         id="stop26" />
      <stop
         stop-color="#F9E1E1"
         offset=".12"
         id="stop28" />
      <stop
         stop-color="#FDF7F7"
         offset=".15"
         id="stop30" />
      <stop
         stop-color="#FFF"
         offset=".17"
         id="stop32" />
    </linearGradient>
    <linearGradient
       id="y"
       x1="6.5176983"
       x2="8.8933648"
       y1="4.3106384"
       y2="6.7431364"
       gradientTransform="scale(1.5118664,0.66143413)"
       gradientUnits="userSpaceOnUse">
      <stop
         stop-color="#9A3B21"
         offset="0"
         id="stop35" />
      <stop
         stop-color="#C75B1F"
         offset="1"
         id="stop37" />
    </linearGradient>
    <linearGradient
       id="w"
       x1="68.03508"
       x2="82.792065"
       y1="40.824521"
       y2="33.787152"
       gradientTransform="scale(1.0000125,0.9999875)"
       gradientUnits="userSpaceOnUse">
      <stop
         stop-color="#B8B116"
         offset=".03"
         id="stop40" />
      <stop
         stop-color="#776A16"
         offset=".65"
         id="stop42" />
      <stop
         stop-color="#904D15"
         offset="1"
         id="stop44" />
    </linearGradient>
    <linearGradient
       id="v"
       x1="50.032039"
       x2="57.923463"
       y1="50.340683"
       y2="48.462042"
       gradientTransform="scale(1.4142172,0.70710499)"
       gradientUnits="userSpaceOnUse">
      <stop
         stop-color="#616D21"
         offset="0"
         id="stop47" />
      <stop
         stop-color="#77181F"
         offset="1"
         id="stop49" />
    </linearGradient>
    <linearGradient
       id="u"
       x1="-294.18735"
       x2="-294.18735"
       y1="-296.96738"
       y2="-304.27087"
       gradientTransform="scale(0.73854845,1.3540073)"
       gradientUnits="userSpaceOnUse">
      <stop
         stop-color="#616D21"
         offset="0"
         id="stop52" />
      <stop
         stop-color="#77181F"
         offset="1"
         id="stop54" />
    </linearGradient>
    <linearGradient
       id="t"
       x1="12.522854"
       x2="38.648049"
       y1="2.9073055"
       y2="54.539936"
       gradientTransform="scale(1.0206117,0.97980458)"
       gradientUnits="userSpaceOnUse">
      <stop
         stop-color="#E26364"
         offset="0"
         id="stop57" />
      <stop
         stop-color="#E98C8D"
         offset=".2"
         id="stop59" />
      <stop
         stop-color="#F2BDBE"
         offset=".46"
         id="stop61" />
      <stop
         stop-color="#F9E1E1"
         offset=".69"
         id="stop63" />
      <stop
         stop-color="#FDF7F7"
         offset=".88"
         id="stop65" />
      <stop
         stop-color="#FFF"
         offset="1"
         id="stop67" />
    </linearGradient>
    <linearGradient
       id="s"
       x1="35.683201"
       x2="36.266912"
       y1="72.035363"
       y2="71.517313"
       gradientTransform="scale(1.5430104,0.64808379)"
       gradientUnits="userSpaceOnUse">
      <stop
         stop-color="#FFF"
         offset="0"
         id="stop70" />
      <stop
         stop-color="#FDF7F7"
         offset=".12"
         id="stop72" />
      <stop
         stop-color="#F9E1E1"
         offset=".31"
         id="stop74" />
      <stop
         stop-color="#F2BDBE"
         offset=".54"
         id="stop76" />
      <stop
         stop-color="#E98C8D"
         offset=".8"
         id="stop78" />
      <stop
         stop-color="#E26364"
         offset=".99"
         id="stop80" />
    </linearGradient>
    <linearGradient
       id="r"
       x1="33.45082"
       x2="60.465211"
       y1="68.587177"
       y2="60.406308"
       gradientTransform="scale(1.2344271,0.81009239)"
       gradientUnits="userSpaceOnUse">
      <stop
         stop-color="#FFF"
         offset=".19"
         id="stop83" />
      <stop
         stop-color="#FAF8F7"
         offset=".29"
         id="stop85" />
      <stop
         stop-color="#EFE8E1"
         offset=".44"
         id="stop87" />
      <stop
         stop-color="#DCCCBD"
         offset=".63"
         id="stop89" />
      <stop
         stop-color="#C3A78C"
         offset=".84"
         id="stop91" />
      <stop
         stop-color="#AE8864"
         offset=".99"
         id="stop93" />
    </linearGradient>
    <linearGradient
       id="q"
       x1="28.556671"
       x2="31.92578"
       y1="32.665337"
       y2="30.626859"
       gradientTransform="scale(0.89442575,1.1180358)"
       gradientUnits="userSpaceOnUse">
      <stop
         offset="0"
         id="stop96" />
      <stop
         stop-color="#040401"
         offset=".11"
         id="stop98" />
      <stop
         stop-color="#131006"
         offset=".23"
         id="stop100" />
      <stop
         stop-color="#2B240E"
         offset=".37"
         id="stop102" />
      <stop
         stop-color="#4C4019"
         offset=".51"
         id="stop104" />
      <stop
         stop-color="#786528"
         offset=".66"
         id="stop106" />
      <stop
         stop-color="#AC913A"
         offset=".81"
         id="stop108" />
      <stop
         stop-color="#E9C54E"
         offset=".96"
         id="stop110" />
      <stop
         stop-color="#F9D254"
         offset="1"
         id="stop112" />
    </linearGradient>
    <linearGradient
       id="p"
       x1="27.953538"
       x2="32.053"
       y1="2.1459858"
       y2="16.932701"
       gradientTransform="scale(0.78174686,1.2791865)"
       gradientUnits="userSpaceOnUse">
      <stop
         stop-color="#F9D254"
         offset="0"
         id="stop115" />
      <stop
         stop-color="#E9C54E"
         offset=".04"
         id="stop117" />
      <stop
         stop-color="#AC913A"
         offset=".19"
         id="stop119" />
      <stop
         stop-color="#786528"
         offset=".34"
         id="stop121" />
      <stop
         stop-color="#4C4019"
         offset=".49"
         id="stop123" />
      <stop
         stop-color="#2B240E"
         offset=".63"
         id="stop125" />
      <stop
         stop-color="#131006"
         offset=".77"
         id="stop127" />
      <stop
         stop-color="#040401"
         offset=".89"
         id="stop129" />
      <stop
         offset="1"
         id="stop131" />
    </linearGradient>
    <linearGradient
       id="o"
       x1="-165.41219"
       x2="-151.14696"
       y1="-521.40101"
       y2="-521.40101"
       gradientTransform="scale(1.4433911,0.6928129)"
       gradientUnits="userSpaceOnUse">
      <stop
         offset="0"
         id="stop134" />
      <stop
         stop-color="#040401"
         offset=".11"
         id="stop136" />
      <stop
         stop-color="#131006"
         offset=".23"
         id="stop138" />
      <stop
         stop-color="#2B240E"
         offset=".37"
         id="stop140" />
      <stop
         stop-color="#4C4019"
         offset=".51"
         id="stop142" />
      <stop
         stop-color="#786528"
         offset=".66"
         id="stop144" />
      <stop
         stop-color="#AC913A"
         offset=".81"
         id="stop146" />
      <stop
         stop-color="#E9C54E"
         offset=".96"
         id="stop148" />
      <stop
         stop-color="#F9D254"
         offset="1"
         id="stop150" />
    </linearGradient>
    <radialGradient
       id="x"
       cx="31.851613"
       cy="33.158777"
       r="19.665506"
       gradientTransform="scale(1.0710053,0.93370216)"
       fx="31.851613"
       fy="33.158777"
       gradientUnits="userSpaceOnUse">
      <stop
         stop-color="#FFD400"
         offset=".03"
         id="stop153" />
      <stop
         stop-color="#FFC727"
         offset="1"
         id="stop155" />
    </radialGradient>
  </defs>
  <g
     transform="rotate(-76,45.461723,37.876785)"
     fill-rule="evenodd"
     id="g200">
    <path
       d="M 45.68,62.166 C 19.8,68.5314 -0.77,36.89 0.023,20.068 0.50524,9.762 3.9498,4.554 6.5561,2.066 V 2.054427 c 1.6476,-1.5682 2.9508,-2.0543 2.9508,-2.0543 l 7.9282,0.34141 c 0,0 3.7488,2.9512 6.8489,9.2645 2.8992,5.914 5.1094,13.379 13.422,20.213 15.018,12.355 23.107,2.4362 30.243,1.1226 l 0.01148,0.01157 c 6.7972,4.8261 11.723,-0.75806 11.723,-0.75806 l 4.3172,6.4059 -0.83817,3.5357 -4.9831,6.4059 c 0,0 -0.01148,-0.01736 -0.04019,-0.04629 -0.09759,-0.10416 -0.36168,-0.39928 -0.76928,-0.79856 -1.55,-1.4872 -5.1037,-4.3284 -8.8065,-3.2405 -4.9314,1.4467 -2.4169,14.652 -22.889,19.698 l 0.0057,0.01157 z"
       fill="url(#ab)"
       id="path160"
       style="fill:url(#ab)" />
    <path
       d="M 45.455,62.166 C 19.702,68.5319 -0.766,36.887 0.022,20.064 0.50186,9.757 3.9295,4.548 6.523,2.06 V 2.048426 l 2.9363,-2.0487 c 0,0 5.8783,2.0082 6.838,6.2965 0,0 -4.1988,13.843 12.568,33.751 12.888,15.301 33.533,2.7605 38.006,0.95489 3.5247,-1.4179 8.2662,2.8242 10.129,4.705 -1.5424,-1.4873 -5.0785,-4.3288 -8.7632,-3.2408 -4.9072,1.4468 -2.405,14.653 -22.776,19.7 h -0.0057 z"
       fill="url(#aa)"
       opacity="0.5"
       style="mix-blend-mode:multiply;fill:url(#aa)"
       id="path162" />
    <path
       d="m 45.566,62.165 c -0.90481,0.21991 -1.8039,0.39931 -2.6915,0.53242 -24.539,3.6343 -43.614,-26.401 -42.853,-42.634 0.48104,-10.307 3.917,-15.515 6.517,-18.004 V 2.047846 l 2.9435,-2.0486 c 0,0 5.8927,2.0081 6.8548,6.2964 0,0 -4.2148,13.843 12.599,33.751 7.5019,8.8833 17.627,8.3798 25.673,6.0418 h 0.0057 0.01145 c 0.02291,-0.0058 0.07445,-0.01736 0.14317,-0.04051 2.9779,-0.87964 5.658,-1.9966 7.8169,-2.9746 l 0.08017,-0.04051 c 1.1911,-0.5382 2.2162,-1.0417 3.0351,-1.4294 0.0859,-0.04051 0.16607,-0.08102 0.24625,-0.11574 0.42377,-0.20255 0.79601,-0.36459 1.0881,-0.48612 0.24052,-0.09259 0.48104,-0.16783 0.73874,-0.20834 0.61848,-0.12153 1.2713,-0.09259 1.9299,0.0463 h 0.01145 c 2.8347,0.60186 5.7954,3.2003 7.2843,4.676 -0.57267,-0.53242 -1.3687,-1.1922 -2.3021,-1.7824 l -0.01145,-0.0058 c -1.7409,-1.0996 -3.9858,-1.9445 -6.2879,-1.2674 -4.9192,1.4468 -2.4109,14.653 -22.832,19.699 v 0.0058 z"
       fill="url(#z)"
       opacity="0.5"
       style="mix-blend-mode:multiply;fill:url(#z)"
       id="path164" />
    <path
       d="m 20,3.8745 c 0,0 -2.0352,-2.4967 -2.9342,-2.1605 C 16.16128,2.05021 16.18335,7 16.18335,7 c 0,0 -0.38607,-1.1394 -1.3568,-2.1044 -0.9707,-0.96505 -5.5981,-2.6523 -7.2637,-1.9799 -1.6656,0.6724 -3.5629,3.4866 -3.5629,3.4866 0,0 2.0131,-4.1964 5.576,-6.1638 0,0 3.9269,-0.72845 7.6167,0.36111 0,0 1.8752,1.9239 2.8018,3.2874 l 0.0055,-0.012452 z"
       fill="url(#y)"
       id="path166"
       style="fill:url(#y)" />
    <path
       d="m 17,0.55369 c 0,0 -1.2548,1.0076 -1.8146,2.1029 C 14.62564,3.74699 10.1476,1.94103 8.6959,1.39099 7.2504,0.8458 8.50521,0.27139 8.50521,0.27139 c 0,0 4.5334,-0.76911 8.4948,0.28233 z"
       fill="#d26e18"
       id="path168" />
    <path
       d="m 16.006,14 c 0,0 2.5391,15.286 14.17,25.956 C 41.813,50.626 55,46.531 55,46.531 c 0,0 -16.385,5.7961 -26.935,-5.6415 -12.719,-13.786 -12.059,-26.89 -12.059,-26.89 z"
       fill="url(#x)"
       id="path170"
       style="fill:url(#x)" />
    <path
       d="m 78.205,46 c 0,0 -0.01145,-0.01698 -0.04009,-0.04529 -0.09735,-0.10191 -0.36077,-0.39066 -0.76736,-0.78132 -1.5462,-1.4551 -5.0909,-4.235 -8.7845,-3.1706 0,0 4.1632,-3.1253 3.7623,-4.8351 -0.38368,-1.6589 -4.1689,-6.1769 -4.3751,-6.426 6.7802,4.7219 11.694,-0.74168 11.694,-0.74168 l 4.3064,6.2675 -0.83608,3.4593 -4.9707,6.2675 0.01145,0.0057 z"
       fill="url(#w)"
       id="path172"
       style="fill:url(#w)" />
    <path
       d="m 68,31.739 c 0,0 5.9095,3.5202 8.7328,5.8613 2.8233,2.3468 6.9268,1.4047 7.2411,-0.3554 C 84.39111,34.8586 79.6761,31 79.6761,31 c 0,0 -3.9149,5.9741 -11.67,0.73901 h -0.0057 z"
       fill="url(#v)"
       id="path174"
       style="fill:url(#v)" />
    <path
       d="m 78,46 c 0,0 4.0275,-4.9537 4.0902,-6.0692 0.05705,-1.1154 -1.5745,-1.9792 -1.5745,-1.9792 0,0 3.0634,-0.73791 3.1433,-2.9516 0,0 1.004,1.7332 -0.43355,4.8164 L 78.00005,46 Z"
       fill="url(#u)"
       id="path176"
       style="fill:url(#u)" />
    <path
       d="m 15.191,5.1146 c 0,0 -3.8671,19.504 8.763,34.365 12.63,14.861 28.046,10.171 28.046,10.171 0,0 -17.208,6.4172 -30.127,-8.7361 C 8.954,25.7555 15.1851,10.3725 11.752,6.7675 8.3185,3.1628 2.0006,10.4812 2.0006,10.4812 c 0,0 2.0405,-5.9695 5.578,-7.1921 3.5376,-1.2226 7.6127,1.8253 7.6127,1.8253 z"
       fill="url(#t)"
       opacity="0.3"
       style="mix-blend-mode:multiply;fill:url(#t)"
       id="path178" />
    <path
       d="m 45.423,35.426 c 11.623,3.5057 2.7606,10.972 -5.6001,10.557 -8.3606,-0.41545 -16.366,-7.3756 -21.623,-21.051 -5.262,-13.676 -0.23662,-20.129 6.1409,-9.9422 6.3775,10.193 9.7128,17.238 21.082,20.431 v 0.0057 z"
       fill="#ffdb9c"
       opacity="0.5"
       style="mix-blend-mode:soft-light"
       id="path180" />
    <path
       d="m 55.152,46.63 c 0.17391,-0.07 0.46196,-0.2 0.84783,-0.34 -0.63043,0.32 -0.94565,0.4 -0.99457,0.42 h -0.0054 L 55.0216,46.7 c 0.02174,-0.01 0.07065,-0.03 0.13587,-0.07 z"
       fill="url(#s)"
       opacity="0.5"
       style="mix-blend-mode:multiply;fill:url(#s)"
       id="path182" />
    <path
       d="m 45.707,62.493 c -0.91017,0.20943 -1.8146,0.38027 -2.7075,0.50703 12.282,-2.932 19.586,-9.7549 19.909,-13.883 0.25347,-3.2075 -4.787,-2.5958 -7.0452,-2.1659 1.1809,-0.31414 3.4103,-1.0306 6.9588,-2.6454 l 0.08065,-0.03858 c 1.2616,-0.57317 2.2466,-1.0196 3.0531,-1.3613 0.08641,-0.03858 0.16706,-0.07716 0.2477,-0.11022 0.77192,-0.32516 1.3537,-0.5401 1.8376,-0.66135 0.7892,-0.20392 1.3192,-0.16534 1.9413,0.04409 h 0.01152 c 0.27075,0.08818 0.55302,0.20943 0.88713,0.35272 2.0623,0.89282 3.969,2.2927 4.1188,2.3974 -1.7512,-1.0471 -4.0094,-1.8518 -6.3251,-1.207 -4.9483,1.3778 -2.4252,13.954 -22.967,18.76 v 0.01102 z"
       fill="url(#r)"
       opacity="0.5"
       style="mix-blend-mode:multiply;fill:url(#r)"
       id="path184" />
    <path
       d="m 30.086,42.034 c 4.4094,2.997 3.5522,-1.6138 -0.81241,-5.1562 -4.359,-3.5424 -5.0986,-4.2003 -7.2556,-7.6865 -2.157,-3.4862 -0.70596,1.2989 2.6501,6.3989 3.3561,5.1 5.4179,6.4439 5.4179,6.4439 z"
       fill="url(#q)"
       style="mix-blend-mode:screen;fill:url(#q)"
       id="path186" />
    <path
       d="m 20.585,3.7634 c -2.9287,-2.0309 -4.0077,0.12291 0.20919,4.8871 4.2169,4.7642 7.3602,12.349 8.0869,12.349 0.72667,0 -2.0259,-4.2784 -4.0902,-9.5577 -2.0589,-5.2793 -4.2059,-7.6789 -4.2059,-7.6789 z"
       fill="url(#p)"
       style="mix-blend-mode:screen;fill:url(#p)"
       id="path188" />
    <path
       d="m 38.25,62.427 c 3.8216,-2.3318 -7.7291,-1.6639 -17.358,-7.3586 -8.6445,-5.1088 -7.6147,-4.7515 -5.1546,-2.49 3.547,3.2575 15.098,12.848 22.512,9.8486 z"
       fill="url(#o)"
       style="mix-blend-mode:screen;fill:url(#o)"
       id="path190" />
    <g
       transform="translate(3,9)"
       fill="#e87986"
       fill-rule="nonzero"
       opacity="0.2"
       style="mix-blend-mode:multiply"
       id="g196">
      <path
         d="m 0.27104,21.873 c 2.4094,-6.1673 7.4294,1.64 8.0504,6.6912 0.61528,5.0511 -4.4392,3.1833 -6.5841,-0.62071 -2.1449,-3.804 -1.8516,-5.0796 -1.4663,-6.0705 z m 44.479,28.627 c -6.0608,-2.7733 2.1276,-7.2379 7.2569,-7.5283 5.1293,-0.29043 2.9211,4.5899 -1.0466,6.4634 -3.9677,1.8735 -5.2385,1.5091 -6.2103,1.0649 z"
         id="path192" />
      <path
         d="M 5.7626,16.725 C 3.382,17.12932 4.5033,21.3604 6.9759,20.6144 9.4485,19.86841 7.40142,16.4459 5.7626,16.725 Z m 34.007,33.444 c -1.3686,1.9703 2.4726,4.1286 3.6572,1.8564 1.1846,-2.2778 -2.7141,-3.2118 -3.6572,-1.8564 z M 6.5046,33.991 c 1.8573,-2.1127 4.8993,2.4885 3.6744,4.1514 C 8.9542,39.8109 4.6472,36.1037 6.5046,33.991 Z M 1.4386,0.137 C 2.9337,-0.7058 3.1004,2.5857 1.85837,3.2861 0.61627,3.98654 -0.42453,1.1905 1.4386,0.137 Z"
         id="path194" />
    </g>
    <path
       d="m 80.202,30 c 0,0 -0.68974,0.56892 0.48281,3.0088 1.1775,2.4399 3.3157,2.9912 3.3157,2.9912 0,0 -0.23648,-2.8211 -3.8034,-6 h 0.0049 z"
       fill="#d26e18"
       id="path198" />
  </g>
</svg>
