<?xml version="1.0" encoding="UTF-8" standalone="no"?>
<svg
   viewBox="0 0 82.406166 82.20108"
   version="1.1"
   id="svg190"
   sodipodi:docname="coin.svg"
   width="82.406166"
   height="82.20108"
   inkscape:version="1.2.2 (1:1.2.2+202305151914+b0a8486541)"
   xmlns:inkscape="http://www.inkscape.org/namespaces/inkscape"
   xmlns:sodipodi="http://sodipodi.sourceforge.net/DTD/sodipodi-0.dtd"
   xmlns="http://www.w3.org/2000/svg"
   xmlns:svg="http://www.w3.org/2000/svg">
  <sodipodi:namedview
     id="namedview192"
     pagecolor="#ffffff"
     bordercolor="#000000"
     borderopacity="0.25"
     inkscape:showpageshadow="2"
     inkscape:pageopacity="0.0"
     inkscape:pagecheckerboard="0"
     inkscape:deskcolor="#d1d1d1"
     showgrid="false"
     inkscape:zoom="9.0884956"
     inkscape:cx="41.646056"
     inkscape:cy="41.536027"
     inkscape:window-width="2560"
     inkscape:window-height="1380"
     inkscape:window-x="0"
     inkscape:window-y="28"
     inkscape:window-maximized="1"
     inkscape:current-layer="g188" />
  <defs
     id="defs152">
    <linearGradient
       id="x"
       x1="56.309541"
       x2="56.309541"
       y1="19.287785"
       y2="91.620014"
       gradientTransform="scale(0.91328578,1.0949475)"
       gradientUnits="userSpaceOnUse">
      <stop
         stop-color="#FFED27"
         offset="0"
         id="stop2" />
      <stop
         stop-color="#F70"
         offset=".23"
         id="stop4" />
      <stop
         stop-color="#FF7A01"
         offset=".38"
         id="stop6" />
      <stop
         stop-color="#FF8605"
         offset=".52"
         id="stop8" />
      <stop
         stop-color="#FF9A0B"
         offset=".66"
         id="stop10" />
      <stop
         stop-color="#FFB514"
         offset=".8"
         id="stop12" />
      <stop
         stop-color="#FFD820"
         offset=".93"
         id="stop14" />
      <stop
         stop-color="#FFED27"
         offset="1"
         id="stop16" />
    </linearGradient>
    <linearGradient
       id="w"
       x1="26.598099"
       x2="83.001283"
       y1="31.550007"
       y2="82.757618"
       gradientTransform="scale(1.0204071,0.98000101)"
       gradientUnits="userSpaceOnUse">
      <stop
         stop-color="#FFED27"
         offset="0"
         id="stop19" />
      <stop
         stop-color="#F70"
         offset=".23"
         id="stop21" />
      <stop
         stop-color="#FF7A01"
         offset=".38"
         id="stop23" />
      <stop
         stop-color="#FF8605"
         offset=".52"
         id="stop25" />
      <stop
         stop-color="#FF9A0B"
         offset=".66"
         id="stop27" />
      <stop
         stop-color="#FFB514"
         offset=".8"
         id="stop29" />
      <stop
         stop-color="#FFD820"
         offset=".93"
         id="stop31" />
      <stop
         stop-color="#FFED27"
         offset="1"
         id="stop33" />
    </linearGradient>
    <linearGradient
       id="v"
       x1="66.276951"
       x2="66.276951"
       y1="10.480972"
       y2="82.813202"
       gradientTransform="scale(0.91328578,1.0949475)"
       gradientUnits="userSpaceOnUse">
      <stop
         stop-color="#FFFF0E"
         offset="0"
         id="stop36" />
      <stop
         stop-color="#FFBB19"
         offset=".34"
         id="stop38" />
      <stop
         stop-color="#FFA400"
         offset=".97"
         id="stop40" />
    </linearGradient>
    <linearGradient
       id="u"
       x1="37.767114"
       x2="82.565139"
       y1="30.492446"
       y2="72.412974"
       gradientTransform="scale(1.0050908,0.99493498)"
       gradientUnits="userSpaceOnUse">
      <stop
         stop-color="#FF9000"
         offset=".03"
         id="stop43" />
      <stop
         stop-color="#FF7227"
         offset="1"
         id="stop45" />
    </linearGradient>
    <linearGradient
       id="t"
       x1="36.264773"
       x2="80.809191"
       y1="32.409801"
       y2="73.94417"
       gradientTransform="scale(1.0068947,0.99315253)"
       gradientUnits="userSpaceOnUse">
      <stop
         stop-color="#FFA40F"
         offset=".3"
         id="stop48" />
      <stop
         stop-color="#FFA427"
         offset="1"
         id="stop50" />
    </linearGradient>
    <linearGradient
       id="s"
       x1="70.971322"
       x2="85.403518"
       y1="53.031086"
       y2="68.272683"
       gradientTransform="scale(0.94611831,1.0569503)"
       gradientUnits="userSpaceOnUse">
      <stop
         stop-color="#FFF"
         offset="0"
         id="stop53" />
      <stop
         stop-color="#FDF7F7"
         offset=".12"
         id="stop55" />
      <stop
         stop-color="#F9E1E1"
         offset=".31"
         id="stop57" />
      <stop
         stop-color="#F2BDBE"
         offset=".54"
         id="stop59" />
      <stop
         stop-color="#E98C8D"
         offset=".8"
         id="stop61" />
      <stop
         stop-color="#E26364"
         offset=".99"
         id="stop63" />
    </linearGradient>
    <linearGradient
       id="r"
       x1="51.938656"
       x2="28.046378"
       y1="28.834132"
       y2="48.618556"
       gradientTransform="scale(1.1302535,0.88475727)"
       gradientUnits="userSpaceOnUse">
      <stop
         stop-color="#F9D254"
         offset="0"
         id="stop66" />
      <stop
         stop-color="#E9C54E"
         offset=".04"
         id="stop68" />
      <stop
         stop-color="#AC913A"
         offset=".19"
         id="stop70" />
      <stop
         stop-color="#786528"
         offset=".34"
         id="stop72" />
      <stop
         stop-color="#4C4019"
         offset=".49"
         id="stop74" />
      <stop
         stop-color="#2B240E"
         offset=".63"
         id="stop76" />
      <stop
         stop-color="#131006"
         offset=".77"
         id="stop78" />
      <stop
         stop-color="#040401"
         offset=".89"
         id="stop80" />
      <stop
         offset="1"
         id="stop82" />
    </linearGradient>
    <linearGradient
       id="q"
       x1="31.775276"
       x2="49.417753"
       y1="96.502617"
       y2="108.20744"
       gradientTransform="scale(1.1936821,0.83774396)"
       gradientUnits="userSpaceOnUse">
      <stop
         offset="0"
         id="stop85" />
      <stop
         stop-color="#040401"
         offset=".11"
         id="stop87" />
      <stop
         stop-color="#131006"
         offset=".23"
         id="stop89" />
      <stop
         stop-color="#2B240E"
         offset=".37"
         id="stop91" />
      <stop
         stop-color="#4C4019"
         offset=".51"
         id="stop93" />
      <stop
         stop-color="#786528"
         offset=".66"
         id="stop95" />
      <stop
         stop-color="#AC913A"
         offset=".81"
         id="stop97" />
      <stop
         stop-color="#E9C54E"
         offset=".96"
         id="stop99" />
      <stop
         stop-color="#F9D254"
         offset="1"
         id="stop101" />
    </linearGradient>
    <linearGradient
       id="p"
       x1="-2541.7345"
       x2="-2541.7345"
       y1="-809.64125"
       y2="-855.17595"
       gradientTransform="scale(0.97051952,1.030376)"
       gradientUnits="userSpaceOnUse">
      <stop
         stop-color="#F9D254"
         offset="0"
         id="stop104" />
      <stop
         stop-color="#E9C54E"
         offset=".04"
         id="stop106" />
      <stop
         stop-color="#AC913A"
         offset=".19"
         id="stop108" />
      <stop
         stop-color="#786528"
         offset=".34"
         id="stop110" />
      <stop
         stop-color="#4C4019"
         offset=".49"
         id="stop112" />
      <stop
         stop-color="#2B240E"
         offset=".63"
         id="stop114" />
      <stop
         stop-color="#131006"
         offset=".77"
         id="stop116" />
      <stop
         stop-color="#040401"
         offset=".89"
         id="stop118" />
      <stop
         offset="1"
         id="stop120" />
    </linearGradient>
    <linearGradient
       id="o"
       x1="-247.60001"
       x2="-244.95"
       y1="-25.836"
       y2="-25.836">
      <stop
         stop-color="#F9D254"
         offset="0"
         id="stop123" />
      <stop
         stop-color="#E9C54E"
         offset=".04"
         id="stop125" />
      <stop
         stop-color="#AC913A"
         offset=".19"
         id="stop127" />
      <stop
         stop-color="#786528"
         offset=".34"
         id="stop129" />
      <stop
         stop-color="#4C4019"
         offset=".49"
         id="stop131" />
      <stop
         stop-color="#2B240E"
         offset=".63"
         id="stop133" />
      <stop
         stop-color="#131006"
         offset=".77"
         id="stop135" />
      <stop
         stop-color="#040401"
         offset=".89"
         id="stop137" />
      <stop
         offset="1"
         id="stop139" />
    </linearGradient>
    <linearGradient
       id="n"
       x1="44.887125"
       x2="76.056757"
       y1="33.587988"
       y2="64.861363"
       gradientTransform="scale(0.97066171,1.030225)"
       gradientUnits="userSpaceOnUse">
      <stop
         stop-color="#FF9000"
         offset=".03"
         id="stop142" />
      <stop
         stop-color="#FF4727"
         offset="1"
         id="stop144" />
    </linearGradient>
    <linearGradient
       id="m"
       x1="-2541.6365"
       x2="-2541.6365"
       y1="-810.29064"
       y2="-855.68249"
       gradientTransform="scale(0.97029772,1.0306115)"
       gradientUnits="userSpaceOnUse">
      <stop
         stop-color="#FF9000"
         offset=".03"
         id="stop147" />
      <stop
         stop-color="#FF7227"
         offset="1"
         id="stop149" />
    </linearGradient>
  </defs>
  <g
     fill-rule="evenodd"
     id="g188"
     transform="translate(-14.820417,-14.926959)">
    <ellipse
       transform="rotate(-46.61,51.467,60.849)"
       cx="51.466999"
       cy="60.848999"
       rx="33.029999"
       ry="39.599998"
       fill="url(#x)"
       fill-rule="nonzero"
       id="ellipse154"
       style="fill:url(#x)" />
    <polygon
       points="80.24,88.037 89.36,78.407 31.8,24.007 22.69,33.637 "
       fill="url(#w)"
       id="polygon156"
       style="fill:url(#w)" />
    <ellipse
       transform="rotate(-46.61,60.58,51.206)"
       cx="60.580002"
       cy="51.206001"
       rx="33.029999"
       ry="39.599998"
       fill="url(#v)"
       fill-rule="nonzero"
       id="ellipse158"
       style="fill:url(#v)" />
    <path
       d="m 24.46,38.717 c 0,0 -0.04,4.65 1.39,5.87 1.43,1.22 68.88,7.52 69.72,6.51 0.84,-1.01 0.34,-3.09 0.34,-3.09 0,0 3.57,11.95 -1.12,22.1 0,0 1.01,-3.67 -0.65,-5.24 -1.65,-1.56 -63.46,-5.5 -64.71,-5.04 -1.25,0.46 -0.52,3.87 -0.52,3.87 0,0 -7.29,-12.73 -4.45,-24.97 z"
       fill="#ffffff"
       style="mix-blend-mode:soft-light"
       id="path160" />
    <path
       d="m 42.82,69.987 c -11.78,-11.13 -14.31,-27.82 -6.21,-38.36 0.45,-0.59 0.93,-1.16 1.45,-1.7 9.8,-10.37 27.83,-9.25 40.26,2.5 12.43,11.75 14.57,29.69 4.76,40.06 -0.52,0.55 -1.06,1.06 -1.62,1.54 -10.07,8.68 -26.87,7.09 -38.65,-4.04 z"
       fill="url(#u)"
       id="path162"
       style="fill:url(#u)" />
    <path
       d="m 42.82,69.987 c -11.78,-11.13 -14.31,-27.82 -6.21,-38.36 10.07,-8.68 26.87,-7.09 38.64,4.05 11.78,11.13 14.31,27.81 6.21,38.36 -10.07,8.68 -26.87,7.09 -38.65,-4.04 z"
       fill="url(#t)"
       id="path164"
       style="fill:url(#t)" />
    <path
       d="m 83.29,38.177 c 0,0 7.94,16.23 -4.48,29.64 -13.64,14.72 -26.85,8.49 -26.85,8.49 0,0 16.47,10.51 31.14,-3.83 14.12,-13.81 0.19,-34.31 0.19,-34.31 z"
       fill="url(#s)"
       style="mix-blend-mode:multiply;fill:url(#s)"
       id="path166" />
    <path
       d="m 81.36,84.297 c 0,0 -31.95,13.1 -54.18,-24.32 0,0 16.26,38.65 54.18,24.32 z"
       fill="#ffffff"
       style="mix-blend-mode:soft-light"
       id="path168" />
    <path
       d="m 63.89,24.057 c 0,0 -15.71,-4.55 -24.56,4.53 -8.84,9.08 -7.36,19.39 -7.36,19.39 0,0 0.46,-11.5 8.25,-17.87 7.8,-6.37 15.04,-2.45 20.1,-2.94 3.68,-0.36 3.57,-3.1 3.57,-3.1 z"
       fill="url(#r)"
       style="mix-blend-mode:screen;fill:url(#r)"
       id="path170" />
    <path
       d="m 54.35,85.847 c 15.05,4.21 6.92,11.69 -4.7,7.52 -11.62,-4.17 -13.4,-15.7 -12.39,-16.62 1.01,-0.91 8.86,6.79 17.09,9.1 z"
       fill="url(#q)"
       style="mix-blend-mode:screen;fill:url(#q)"
       id="path172" />
    <path
       d="m 47.36,55.887 c 1.24,0.31 2.55,0.46 3.94,0.44 1.39,-0.01 2.82,-0.16 4.27,-0.44 1.44,-0.27 2.83,-0.57 4.13,-0.89 l 4.9,5.15 -1.29,1.36 c -0.37,0.39 -0.57,0.8 -0.6,1.21 -0.04,0.42 0.05,0.92 0.24,1.5 0.23,0.6 0.43,1.01 0.57,1.23 0.14,0.22 0.29,0.4 0.43,0.53 0.35,0.33 0.91,0.31 1.68,-0.05 0.77,-0.36 1.69,-0.97 2.73,-1.84 l 3.1,3.27 c 0.48,0.46 0.97,0.68 1.45,0.68 0.33,0 0.65,-0.11 0.93,-0.31 0.12,-0.08 0.23,-0.18 0.34,-0.29 0.46,-0.48 0.79,-0.93 1,-1.33 0.22,-0.4 0.33,-0.77 0.35,-1.11 0.02,-0.34 -0.03,-0.64 -0.16,-0.9 -0.12,-0.26 -0.29,-0.51 -0.51,-0.74 l -2.85,-3.04 c 0.71,-0.97 1.35,-2.02 1.92,-3.18 0.58,-1.15 0.99,-2.29 1.24,-3.42 0.26,-1.14 0.31,-2.21 0.16,-3.22 -0.15,-1.02 -0.58,-1.86 -1.31,-2.55 -0.62,-0.59 -1.37,-0.94 -2.26,-1.06 -0.88,-0.12 -1.89,-0.11 -3.01,0.03 -1.13,0.14 -2.34,0.38 -3.66,0.71 -1.32,0.33 -2.71,0.67 -4.17,1.04 l -5.37,-5.59 -0.87,-0.91 c 1.12,-0.14 2.18,-0.08 3.2,0.19 1.02,0.27 1.93,0.79 2.73,1.55 0.21,0.2 0.45,0.34 0.73,0.41 0.27,0.08 0.55,0.1 0.83,0.08 0.28,-0.03 0.55,-0.08 0.82,-0.17 0.27,-0.09 0.5,-0.2 0.69,-0.34 l 0.52,-0.28 c 0.08,-0.05 0.15,-0.1 0.22,-0.14 0.06,-0.04 0.11,-0.08 0.17,-0.11 0.12,-0.08 0.23,-0.18 0.35,-0.3 0.33,-0.35 0.51,-0.71 0.55,-1.08 0.03,-0.37 -0.03,-0.75 -0.18,-1.13 -0.14,-0.38 -0.37,-0.76 -0.67,-1.13 -0.3,-0.37 -0.61,-0.71 -0.94,-1.02 -0.85,-0.8 -1.81,-1.41 -2.88,-1.82 -1.07,-0.42 -2.2,-0.65 -3.38,-0.73 -1.18,-0.07 -2.38,0.02 -3.6,0.28 -1.21,0.26 -2.39,0.63 -3.52,1.14 l -4.81,-5.05 c -0.48,-0.46 -0.96,-0.69 -1.44,-0.71 -0.48,0 -0.91,0.19 -1.28,0.58 -0.23,0.24 -0.42,0.47 -0.58,0.68 -0.19,0.24 -0.33,0.47 -0.45,0.69 -0.22,0.41 -0.34,0.78 -0.35,1.11 -0.01,0.33 0.05,0.63 0.17,0.89 0.12,0.26 0.3,0.51 0.51,0.73 l 3.82,3.96 c -0.17,0.13 -0.33,0.25 -0.45,0.39 l -0.51,0.54 c -0.08,0.09 -0.16,0.18 -0.23,0.27 -0.62,0.73 -1.16,1.55 -1.63,2.48 -0.56,1.1 -0.91,2.24 -1.07,3.42 -0.17,1.17 -0.09,2.34 0.23,3.5 0.32,1.17 0.97,2.21 1.96,3.14 0.88,0.83 1.94,1.4 3.18,1.71 z m 22.15,-2.71 c 0.23,0.22 0.35,0.46 0.36,0.73 0.01,0.27 -0.03,0.56 -0.14,0.86 -0.1,0.31 -0.25,0.62 -0.47,0.95 -0.22,0.33 -0.44,0.66 -0.68,0.97 l -0.15,-0.15 -2.51,-2.57 -0.53,-0.54 c 0.37,-0.12 0.75,-0.23 1.14,-0.34 0.39,-0.12 0.78,-0.19 1.15,-0.24 0.38,-0.04 0.72,-0.05 1.04,0 0.32,0.04 0.58,0.16 0.77,0.34 z M 48.2,45.467 c 0.2,-0.22 0.42,-0.42 0.63,-0.62 0.22,-0.2 0.44,-0.39 0.67,-0.57 l 5.53,5.79 c -0.51,0.12 -1.04,0.21 -1.58,0.27 -0.2,0.02 -0.4,0.04 -0.61,0.06 -0.77,0.05 -1.5,0.04 -2.2,-0.03 -0.69,-0.07 -1.32,-0.19 -1.88,-0.37 -0.57,-0.17 -1,-0.4 -1.3,-0.69 -0.29,-0.27 -0.47,-0.58 -0.51,-0.92 -0.06,-0.34 -0.03,-0.68 0.08,-1.02 0.11,-0.35 0.27,-0.68 0.48,-1.01 0.12,-0.18 0.24,-0.36 0.37,-0.51 0.1,-0.14 0.21,-0.27 0.33,-0.39 z"
       fill="url(#p)"
       fill-rule="nonzero"
       id="path174"
       style="fill:url(#p)" />
    <path
       d="m 47.93,56.417 c 1.24,0.31 2.55,0.46 3.94,0.44 1.39,-0.01 2.82,-0.16 4.27,-0.44 1.44,-0.27 2.83,-0.57 4.13,-0.89 l 4.9,5.15 -1.29,1.36 c -0.37,0.39 -0.57,0.8 -0.6,1.21 -0.04,0.42 0.05,0.92 0.24,1.5 0.23,0.6 0.43,1.01 0.57,1.23 0.14,0.22 0.29,0.4 0.43,0.53 0.35,0.33 0.91,0.31 1.68,-0.05 0.77,-0.36 1.69,-0.97 2.73,-1.84 l 3.1,3.27 c 0.48,0.46 0.97,0.68 1.45,0.68 0.33,0 0.65,-0.11 0.93,-0.31 0.12,-0.08 0.23,-0.18 0.34,-0.29 0.46,-0.48 0.79,-0.93 1,-1.33 0.22,-0.4 0.33,-0.77 0.35,-1.11 0.02,-0.34 -0.03,-0.64 -0.16,-0.9 -0.12,-0.26 -0.29,-0.51 -0.51,-0.74 l -2.85,-3.04 c 0.71,-0.97 1.35,-2.02 1.92,-3.18 0.58,-1.15 0.99,-2.29 1.24,-3.42 0.26,-1.14 0.31,-2.21 0.16,-3.22 -0.15,-1.02 -0.58,-1.86 -1.31,-2.55 -0.62,-0.59 -1.37,-0.94 -2.26,-1.06 -0.88,-0.12 -1.89,-0.11 -3.02,0.03 -1.13,0.14 -2.34,0.38 -3.66,0.71 -1.32,0.33 -2.71,0.67 -4.17,1.04 l -5.37,-5.59 -0.87,-0.91 c 1.12,-0.14 2.18,-0.08 3.2,0.19 1.02,0.27 1.93,0.79 2.73,1.55 0.21,0.2 0.45,0.34 0.73,0.41 0.27,0.08 0.55,0.1 0.83,0.08 0.28,-0.03 0.55,-0.08 0.82,-0.17 0.27,-0.09 0.5,-0.2 0.69,-0.34 l 0.52,-0.28 c 0.08,-0.05 0.15,-0.1 0.22,-0.14 0.06,-0.04 0.11,-0.08 0.17,-0.11 0.12,-0.08 0.23,-0.18 0.35,-0.3 0.33,-0.35 0.51,-0.71 0.55,-1.08 0.03,-0.37 -0.03,-0.75 -0.18,-1.13 -0.14,-0.38 -0.37,-0.76 -0.67,-1.13 -0.3,-0.37 -0.61,-0.71 -0.94,-1.02 -0.85,-0.8 -1.81,-1.41 -2.88,-1.82 -1.07,-0.42 -2.2,-0.65 -3.38,-0.73 -1.18,-0.07 -2.38,0.02 -3.6,0.28 -1.21,0.26 -2.39,0.63 -3.52,1.14 l -4.81,-5.05 c -0.48,-0.46 -0.96,-0.69 -1.44,-0.71 -0.48,0 -0.91,0.19 -1.28,0.58 -0.23,0.24 -0.42,0.47 -0.58,0.68 -0.19,0.24 -0.33,0.48 -0.45,0.69 -0.22,0.41 -0.34,0.78 -0.35,1.11 -0.01,0.33 0.05,0.63 0.17,0.89 0.12,0.26 0.3,0.51 0.51,0.73 l 3.82,3.96 c -0.17,0.13 -0.33,0.25 -0.45,0.39 l -0.51,0.54 c -0.08,0.09 -0.16,0.18 -0.23,0.27 -0.62,0.73 -1.16,1.55 -1.63,2.48 -0.56,1.1 -0.91,2.24 -1.07,3.42 -0.17,1.17 -0.09,2.34 0.23,3.5 0.32,1.17 0.97,2.21 1.96,3.14 0.88,0.83 1.94,1.4 3.18,1.71 z m 22.15,-2.71 c 0.23,0.22 0.35,0.46 0.36,0.73 0.01,0.27 -0.03,0.56 -0.14,0.86 -0.1,0.31 -0.25,0.62 -0.47,0.95 -0.22,0.33 -0.44,0.66 -0.68,0.97 l -0.15,-0.15 -2.51,-2.57 -0.53,-0.55 c 0.37,-0.12 0.75,-0.23 1.14,-0.34 0.39,-0.12 0.78,-0.19 1.15,-0.24 0.38,-0.04 0.72,-0.05 1.04,0 0.32,0.04 0.58,0.16 0.77,0.34 z m -21.31,-7.71 c 0.2,-0.22 0.42,-0.42 0.63,-0.62 0.22,-0.2 0.44,-0.39 0.67,-0.57 l 5.53,5.79 c -0.51,0.12 -1.04,0.21 -1.58,0.27 -0.2,0.02 -0.4,0.04 -0.61,0.06 -0.77,0.05 -1.5,0.04 -2.2,-0.03 -0.69,-0.07 -1.32,-0.19 -1.88,-0.37 -0.57,-0.17 -1,-0.4 -1.3,-0.69 -0.29,-0.27 -0.47,-0.58 -0.51,-0.92 -0.06,-0.34 -0.03,-0.68 0.08,-1.02 0.11,-0.35 0.27,-0.68 0.48,-1.01 0.12,-0.18 0.24,-0.36 0.37,-0.51 0.1,-0.14 0.21,-0.27 0.33,-0.39 z"
       fill="url(#n)"
       fill-rule="nonzero"
       id="path178"
       style="fill:url(#n)" />
    <path
       d="m 47.93,56.417 c 1.24,0.31 2.55,0.46 3.94,0.44 1.39,-0.01 2.82,-0.16 4.27,-0.44 1.44,-0.27 2.83,-0.57 4.13,-0.89 l 4.9,5.15 -1.29,1.36 c -0.37,0.39 -0.57,0.8 -0.6,1.21 -0.04,0.42 0.05,0.92 0.24,1.5 0.23,0.6 0.43,1.01 0.57,1.23 0.14,0.22 0.29,0.4 0.43,0.53 0.35,0.33 0.91,0.31 1.68,-0.05 0.77,-0.36 1.69,-0.97 2.73,-1.84 l 3.1,3.27 c 0.48,0.46 0.97,0.68 1.45,0.68 0.33,0 0.65,-0.11 0.93,-0.31 0.18,-0.23 0.32,-0.45 0.43,-0.66 0.21,-0.39 0.33,-0.77 0.35,-1.11 0.02,-0.34 -0.03,-0.64 -0.16,-0.9 -0.12,-0.26 -0.3,-0.51 -0.51,-0.74 l -2.85,-3.04 c 0.7,-0.96 1.35,-2.02 1.92,-3.17 0.58,-1.15 0.99,-2.29 1.25,-3.43 0.25,-1.13 0.31,-2.21 0.16,-3.22 -0.15,-1.02 -0.58,-1.86 -1.31,-2.55 -0.62,-0.59 -1.37,-0.94 -2.26,-1.07 -0.89,-0.12 -1.89,-0.11 -3.01,0.03 -1.13,0.14 -2.35,0.38 -3.66,0.71 -1.32,0.33 -2.71,0.67 -4.17,1.05 l -6.24,-6.5 c 0.61,-0.08 1.21,-0.1 1.79,-0.06 l -0.87,-0.91 c 1.12,-0.14 2.18,-0.08 3.2,0.19 1.02,0.27 1.93,0.79 2.73,1.55 0.21,0.2 0.45,0.34 0.73,0.41 0.27,0.08 0.55,0.1 0.83,0.08 0.28,-0.03 0.55,-0.08 0.82,-0.17 0.27,-0.09 0.5,-0.2 0.69,-0.34 l 0.52,-0.28 c 0.08,-0.05 0.15,-0.1 0.22,-0.14 0.08,-0.17 0.13,-0.34 0.15,-0.52 0.03,-0.37 -0.03,-0.75 -0.18,-1.14 -0.15,-0.38 -0.37,-0.76 -0.67,-1.13 -0.3,-0.37 -0.61,-0.71 -0.94,-1.02 -0.85,-0.8 -1.81,-1.41 -2.88,-1.82 -1.08,-0.41 -2.2,-0.65 -3.38,-0.73 -1.18,-0.07 -2.38,0.02 -3.6,0.28 -1.21,0.26 -2.39,0.64 -3.53,1.14 l -4.8,-5.06 c -0.48,-0.46 -0.97,-0.69 -1.45,-0.7 -0.34,0 -0.66,0.09 -0.95,0.29 -0.19,0.24 -0.33,0.48 -0.45,0.69 -0.22,0.41 -0.34,0.78 -0.35,1.11 -0.01,0.33 0.05,0.63 0.17,0.89 0.12,0.26 0.3,0.51 0.51,0.73 l 3.82,3.96 c -0.17,0.13 -0.33,0.25 -0.45,0.39 l -0.51,0.54 0.05,0.04 c -0.1,0.07 -0.19,0.14 -0.28,0.22 -0.62,0.73 -1.16,1.55 -1.63,2.48 -0.56,1.1 -0.91,2.24 -1.07,3.42 -0.17,1.17 -0.09,2.34 0.23,3.5 0.32,1.17 0.97,2.21 1.96,3.14 0.88,0.83 1.94,1.4 3.18,1.71 z m 17.13,-1.5 c 0.36,-0.11 0.74,-0.23 1.14,-0.34 0.1,-0.03 0.2,-0.06 0.3,-0.08 l -0.53,-0.55 c 0.37,-0.12 0.75,-0.23 1.14,-0.34 0.39,-0.12 0.78,-0.19 1.15,-0.24 0.38,-0.04 0.72,-0.05 1.04,0 0.32,0.04 0.58,0.16 0.77,0.34 0.23,0.22 0.35,0.46 0.36,0.73 0.01,0.27 -0.03,0.56 -0.14,0.86 -0.1,0.31 -0.25,0.62 -0.47,0.95 -0.22,0.33 -0.44,0.66 -0.68,0.97 l -0.15,-0.15 c -0.03,0.05 -0.05,0.1 -0.08,0.15 -0.21,0.33 -0.44,0.66 -0.68,0.97 l -3.19,-3.27 z m -18.47,-5.02 c -0.05,-0.34 -0.02,-0.68 0.08,-1.02 0.11,-0.34 0.26,-0.68 0.48,-1.01 0.22,-0.33 0.45,-0.63 0.71,-0.91 0.18,-0.19 0.38,-0.38 0.58,-0.57 0.1,-0.14 0.21,-0.27 0.33,-0.39 0.2,-0.22 0.42,-0.42 0.63,-0.62 0.22,-0.2 0.44,-0.39 0.67,-0.57 l 5.53,5.79 c -0.51,0.12 -1.04,0.21 -1.58,0.27 l 0.67,0.7 c -0.7,0.16 -1.43,0.27 -2.2,0.33 -0.77,0.05 -1.5,0.04 -2.19,-0.03 -0.69,-0.06 -1.32,-0.18 -1.89,-0.36 -0.56,-0.18 -1,-0.4 -1.3,-0.69 -0.29,-0.27 -0.46,-0.59 -0.51,-0.92 z"
       fill="url(#m)"
       fill-rule="nonzero"
       id="path180"
       style="fill:url(#m)" />
    <polygon
       points="54.32,43.657 55.24,42.697 61.48,49.197 60.57,50.167 "
       fill="#ff6800"
       fill-rule="nonzero"
       id="polygon182" />
    <path
       d="m 49.95,39.057 0.92,-0.97 c 0,0 -4.85,-5.3 -5.54,-5.58 -1.49,-0.6 -2.58,1.08 -2.58,1.08 0,0 1.41,-0.54 2.4,0.41 0.99,0.94 4.8,5.06 4.8,5.06 z m 5.64,11.54 -0.92,0.97 c 0,0 -5.29,0.76 -7.17,-0.46 -1.88,-1.22 -0.39,-3.4 0.92,-4.72 0,0 -1.53,1.9 -0.58,3.16 0.95,1.26 5.5,1.42 7.74,1.05 z"
       fill="#ff6800"
       fill-rule="nonzero"
       id="path184" />
    <path
       transform="translate(20.609,63.58)"
       d="m 2.8217,0.36607 c 4.81,-2.64 14.09,9.64 14.63,16.28 0.54,6.64 -13.24,0.83 -16.04,-5.9 -2.8,-6.73 -0.96,-9.08 1.41,-10.38 z m 13.05,21.2 c 2.64,0.01 7.92,5.93 5.68,6.74 -2.23,0.81 -6.25,-1.89 -6.88,-3.81 -0.63,-1.92 0.28,-2.93 1.2,-2.92 z"
       fill="#e87986"
       fill-rule="nonzero"
       opacity="0.3"
       style="mix-blend-mode:multiply"
       id="path186" />
  </g>
</svg>
